# Blender 3.6.2
# www.blender.org
o Cube
v 1.571389 1.520888 1.312446
v 1.571389 -0.792535 1.626247
v 7.140076 0.158532 0.000000
v 7.140076 -0.712170 0.000000
v 1.571389 1.520888 -1.312446
v 1.571389 -0.792535 -1.626247
v 1.571389 1.520888 0.000000
v 1.571389 -0.792535 0.000000
v 7.140076 0.158532 1.327402
v 7.140076 -0.712170 1.327402
v 7.140076 0.158532 -1.327402
v 7.140076 -0.712170 -1.327402
v 4.764342 1.520888 -1.312446
v 4.764342 -1.000000 -1.626247
v 4.764342 -1.000000 1.626247
v 4.764342 1.520888 1.312446
v 0.699714 -0.792535 -1.584087
v 0.699714 0.004201 1.584087
v 0.699714 0.004201 -1.584087
v 0.699714 -0.792535 1.584087
v 6.236916 0.301206 -1.542327
v 6.236916 0.301206 1.542327
v 6.236916 -0.997671 -1.542327
v 6.236916 -0.997671 1.542327
v 4.764342 1.520888 0.000000
v 4.764342 -1.000000 0.000000
v 0.699714 -0.792535 0.000000
v 0.699714 0.004201 0.000000
v 6.236916 0.301206 0.000000
v 6.236916 -0.997671 0.000000
v 1.571389 0.319069 1.626247
v 1.571389 0.319069 -1.626247
v 4.768140 0.311473 -1.626247
v 0.699714 -0.474546 1.584087
v 0.699714 -0.474546 -1.584087
v 2.035946 -1.000000 -1.626247
v 2.035946 -1.000000 1.626247
v 2.035946 1.520888 -1.312446
v 2.035946 1.520888 1.312446
v 2.035946 -1.000000 0.000000
v 2.035946 1.520888 0.000000
v 2.035946 0.319069 -1.626247
v 2.035946 0.319069 1.626247
v 4.766903 0.310137 1.584287
v 1.577106 1.510336 1.300823
v 0.710091 0.001032 1.570562
v 0.709714 0.001532 -0.000000
v 1.573521 -0.782535 0.000000
v 1.573807 -0.781898 -1.611930
v 0.709760 -0.782623 -1.569345
v 0.710091 0.001032 -1.570562
v 0.709714 -0.474546 -1.569412
v 1.571729 0.318106 -1.611108
v 4.760799 1.510229 -1.300918
v 6.232116 0.291467 -1.528611
v 6.232648 0.291756 0.000000
v 2.038077 -0.990000 0.000000
v 2.038191 -0.989452 1.611881
v 4.764144 -0.990073 1.610739
v 7.130075 -0.704844 0.000000
v 7.129526 -0.704998 1.315241
v 7.129673 0.150225 1.314808
v 6.235365 -0.987674 0.000000
v 7.129526 -0.704998 -1.315241
v 7.130075 0.149988 0.000000
v 2.035946 1.510888 1.299683
v 2.035946 1.510888 0.000000
v 4.760739 1.510888 0.000000
v 2.038217 -0.989343 -1.612102
v 4.764334 -0.990000 0.000000
v 2.035944 0.318214 -1.611097
v 4.767948 0.310623 -1.611096
v 1.571729 0.318106 1.611108
v 0.709714 -0.474546 1.569412
v 0.709714 -0.782535 0.000000
v 0.709760 -0.782623 1.569345
v 6.234465 -0.987506 1.527868
v 1.577106 1.510336 -1.300823
v 1.577176 1.510888 -0.000000
v 4.760785 1.510190 1.300715
v 6.234465 -0.987506 -1.527868
v 2.035946 1.510888 -1.299683
v 7.129673 0.150225 -1.314808
v 4.764145 -0.990079 -1.610977
v 1.573807 -0.781898 1.611930
v 6.232137 0.291490 1.528553
v 4.766768 0.309416 1.569144
v 2.035897 0.318234 1.611096
vn -0.8670 0.4983 -0.0000
vn -0.0000 -1.0000 -0.0000
vn -0.0483 -0.0000 -0.9988
vn 0.6379 0.7701 -0.0000
vn 1.0000 -0.0000 -0.0000
vn 0.3014 -0.9535 -0.0000
vn 0.1560 0.9878 -0.0000
vn -0.0000 1.0000 -0.0000
vn 0.0007 0.2512 -0.9679
vn -0.0483 -0.0000 0.9988
vn 0.0016 -1.0000 -0.0000
vn 0.0570 0.2509 -0.9663
vn 0.2315 -0.0000 -0.9728
vn 0.0569 -0.0000 -0.9984
vn -0.0000 -0.0000 -1.0000
vn 0.0292 0.2190 0.9753
vn -1.0000 -0.0000 -0.0000
vn -0.0000 0.2526 0.9676
vn -0.0000 0.2526 -0.9676
vn -0.4078 -0.9131 -0.0000
vn -0.0000 -0.0000 1.0000
vn -0.0000 0.0320 0.9995
vn 0.0569 -0.0000 0.9984
vn 0.0157 0.2191 0.9756
vn 0.2315 -0.0000 0.9728
vn -0.1368 0.2503 -0.9585
vn -0.1368 0.2503 0.9585
vn 0.0570 -0.0002 -0.9984
vn 0.0154 -0.0000 0.9999
vn 0.0287 0.0319 0.9991
vn -0.8671 0.4982 0.0004
vn 0.0008 -1.0000 -0.0004
vn -0.0461 -0.0024 -0.9989
vn 0.6379 0.7701 -0.0004
vn -0.0002 -1.0000 0.0003
vn 1.0000 -0.0002 0.0004
vn 0.1560 0.9878 -0.0001
vn -0.0000 -1.0000 -0.0004
vn 0.0007 0.2503 -0.9682
vn -0.0461 -0.0024 0.9989
vn -0.0000 -1.0000 -0.0001
vn 0.0017 -1.0000 -0.0000
vn -0.8670 0.4983 -0.0002
vn 0.6379 0.7701 0.0004
vn 0.0016 -1.0000 -0.0001
vn 0.0577 0.2502 -0.9665
vn 0.0002 1.0000 -0.0000
vn 0.1555 0.9878 -0.0002
vn 0.3011 -0.9536 0.0003
vn 0.2312 -0.0001 -0.9729
vn 0.0564 -0.0005 -0.9984
vn -0.0492 -0.0002 0.9988
vn 0.0004 0.0008 -1.0000
vn 0.0297 0.2182 0.9755
vn -0.0492 -0.0002 -0.9988
vn 0.0021 0.2519 0.9678
vn -0.0000 0.0008 -1.0000
vn -0.0012 1.0000 -0.0000
vn -0.0000 0.2519 -0.9678
vn -0.4078 -0.9131 -0.0004
vn -0.0000 1.0000 0.0004
vn -0.0000 0.0007 1.0000
vn -0.4080 -0.9130 0.0004
vn 0.0004 0.0320 0.9995
vn 0.0563 -0.0004 0.9984
vn 0.0157 0.2182 0.9758
vn 1.0000 -0.0000 -0.0004
vn 0.2317 0.0005 0.9728
vn -0.8670 0.4983 0.0002
vn -0.0000 -1.0000 0.0001
vn -0.1371 0.2501 -0.9585
vn 1.0000 -0.0000 0.0003
vn 0.3011 -0.9536 -0.0003
vn 0.1555 0.9878 0.0002
vn 0.0003 1.0000 0.0005
vn -0.0003 -1.0000 -0.0000
vn -0.0004 0.2526 -0.9676
vn -0.1371 0.2501 0.9585
vn 0.0008 -1.0000 0.0004
vn 0.0016 -1.0000 0.0001
vn -0.8671 0.4982 -0.0004
vn 0.6379 0.7702 0.0003
vn -0.0000 1.0000 -0.0005
vn 0.1560 0.9878 0.0001
vn 0.2318 0.0005 -0.9728
vn 0.0562 -0.0003 -0.9984
vn -0.0489 0.0007 0.9988
vn -0.0000 -0.0001 -1.0000
vn -0.0489 0.0007 -0.9988
vn -1.0000 0.0008 -0.0002
vn -1.0000 -0.0001 -0.0000
vn -0.0000 0.0007 -1.0000
vn -0.0000 1.0000 -0.0004
vn 0.0021 0.2526 -0.9676
vn 0.0004 0.0006 1.0000
vn -0.4078 -0.9131 0.0003
vn 0.0154 0.0006 0.9999
vn 0.0281 0.0319 0.9991
vn -0.0003 0.2526 0.9676
vn 1.0000 -0.0002 -0.0003
vn 0.2312 -0.0001 0.9729
vn -1.0000 0.0008 0.0002
s 0
f 1//1 28//1 18//1
f 8//2 17//2 6//2
f 19//3 32//3 35//3
f 13//4 29//4 21//4
f 40//2 15//2 37//2
f 4//5 9//5 10//5
f 30//6 12//6 4//6
f 29//7 9//7 3//7
f 39//8 25//8 41//8
f 36//2 26//2 40//2
f 42//9 13//9 33//9
f 31//10 18//10 34//10
f 8//2 20//2 27//2
f 26//11 24//11 15//11
f 5//1 28//1 7//1
f 16//4 29//4 25//4
f 26//11 23//11 30//11
f 33//12 13//12 21//12
f 41//8 13//8 38//8
f 29//7 11//7 21//7
f 30//6 10//6 24//6
f 21//13 12//13 23//13
f 14//14 21//14 23//14
f 2//10 34//10 20//10
f 42//15 14//15 36//15
f 22//16 16//16 44//16
f 35//3 6//3 17//3
f 35//17 27//17 28//17
f 31//18 39//18 1//18
f 6//15 42//15 36//15
f 5//8 41//8 38//8
f 5//19 42//19 32//19
f 6//20 40//20 8//20
f 1//8 41//8 7//8
f 2//21 43//21 31//21
f 8//20 37//20 2//20
f 44//22 37//22 15//22
f 22//23 15//23 24//23
f 16//24 43//24 44//24
f 12//5 3//5 4//5
f 22//25 10//25 9//25
f 34//17 28//17 27//17
f 1//1 7//1 28//1
f 8//2 27//2 17//2
f 19//26 5//26 32//26
f 13//4 25//4 29//4
f 40//2 26//2 15//2
f 4//5 3//5 9//5
f 30//6 23//6 12//6
f 29//7 22//7 9//7
f 39//8 16//8 25//8
f 36//2 14//2 26//2
f 42//19 38//19 13//19
f 31//27 1//27 18//27
f 8//2 2//2 20//2
f 26//11 30//11 24//11
f 5//1 19//1 28//1
f 16//4 22//4 29//4
f 26//11 14//11 23//11
f 41//8 25//8 13//8
f 29//7 3//7 11//7
f 30//6 4//6 10//6
f 21//13 11//13 12//13
f 14//28 33//28 21//28
f 2//10 31//10 34//10
f 42//15 33//15 14//15
f 35//3 32//3 6//3
f 28//17 19//17 35//17
f 35//17 17//17 27//17
f 31//18 43//18 39//18
f 6//15 32//15 42//15
f 5//8 7//8 41//8
f 5//19 38//19 42//19
f 6//20 36//20 40//20
f 1//8 39//8 41//8
f 2//21 37//21 43//21
f 8//20 40//20 37//20
f 44//29 43//29 37//29
f 22//30 44//30 15//30
f 16//18 39//18 43//18
f 12//5 11//5 3//5
f 22//25 24//25 10//25
f 27//17 20//17 34//17
f 34//17 18//17 28//17
f 45//31 47//31 46//31
f 48//32 50//32 49//32
f 51//33 53//33 52//33
f 54//34 56//34 55//34
f 57//35 59//35 58//35
f 60//36 62//36 61//36
f 63//6 64//6 60//6
f 56//37 62//37 65//37
f 66//8 68//8 67//8
f 69//38 70//38 57//38
f 71//39 54//39 72//39
f 73//40 46//40 74//40
f 48//41 76//41 75//41
f 70//42 77//42 59//42
f 78//43 47//43 79//43
f 80//44 56//44 68//44
f 70//45 81//45 63//45
f 72//46 54//46 55//46
f 67//47 54//47 82//47
f 56//48 83//48 55//48
f 63//49 61//49 77//49
f 55//50 64//50 81//50
f 84//51 55//51 81//51
f 85//52 74//52 76//52
f 71//53 84//53 69//53
f 86//54 80//54 87//54
f 52//55 49//55 50//55
f 52//17 75//17 47//17
f 73//56 66//56 45//56
f 49//57 71//57 69//57
f 78//58 67//58 82//58
f 78//59 71//59 53//59
f 49//60 57//60 48//60
f 45//61 67//61 79//61
f 85//62 88//62 73//62
f 48//63 58//63 85//63
f 87//64 58//64 59//64
f 86//65 59//65 77//65
f 80//66 88//66 87//66
f 64//67 65//67 60//67
f 86//68 61//68 62//68
f 74//17 47//17 75//17
f 45//69 79//69 47//69
f 48//70 75//70 50//70
f 51//71 78//71 53//71
f 54//34 68//34 56//34
f 57//2 70//2 59//2
f 60//72 65//72 62//72
f 63//73 81//73 64//73
f 56//74 86//74 62//74
f 66//75 80//75 68//75
f 69//76 84//76 70//76
f 71//77 82//77 54//77
f 73//78 45//78 46//78
f 48//79 85//79 76//79
f 70//80 63//80 77//80
f 78//81 51//81 47//81
f 80//82 86//82 56//82
f 70//42 84//42 81//42
f 67//83 68//83 54//83
f 56//84 65//84 83//84
f 63//6 60//6 61//6
f 55//85 83//85 64//85
f 84//86 72//86 55//86
f 85//87 73//87 74//87
f 71//88 72//88 84//88
f 52//89 53//89 49//89
f 47//90 51//90 52//90
f 52//91 50//91 75//91
f 73//18 88//18 66//18
f 49//92 53//92 71//92
f 78//93 79//93 67//93
f 78//94 82//94 71//94
f 49//60 69//60 57//60
f 45//58 66//58 67//58
f 85//95 58//95 88//95
f 48//96 57//96 58//96
f 87//97 88//97 58//97
f 86//98 87//98 59//98
f 80//99 66//99 88//99
f 64//100 83//100 65//100
f 86//101 77//101 61//101
f 75//91 76//91 74//91
f 74//102 46//102 47//102
