# Blender 3.6.4
# www.blender.org
o Cylinder
v -3.666200 -5.444327 -14.826535
v -3.666200 4.209850 -14.826535
v 3.323435 -5.444327 -12.774194
v 3.323435 3.177822 -12.774194
v 8.093910 -5.444327 -7.268772
v 8.093910 0.966785 -7.268772
v 9.130632 -5.444327 -0.058202
v 9.130632 -1.520677 -0.058202
v 6.104452 -5.444327 11.094491
v 6.104452 -2.836744 11.094491
v -0.023841 -5.444327 15.032906
v -0.023841 -2.836744 15.032906
v -7.308559 -5.444327 15.032906
v -7.308559 -2.836744 15.032906
v -13.436852 -5.444327 11.094491
v -13.436852 -2.836744 11.094491
v -16.463034 -5.444327 -0.058202
v -16.463034 -1.520677 -0.058202
v -15.426310 -5.444327 -7.268772
v -15.426310 0.966785 -7.268772
v -10.655835 -5.444327 -12.774194
v -10.655835 3.177822 -12.774194
vn 0.2817 -0.0000 -0.9595
vn 0.7557 -0.0000 -0.6549
vn 0.9898 -0.0000 -0.1423
vn 0.9651 -0.0000 0.2619
vn 0.5406 -0.0000 0.8413
vn -0.0000 -0.0000 1.0000
vn -0.5406 -0.0000 0.8413
vn -0.9651 -0.0000 0.2619
vn -0.9898 -0.0000 -0.1423
vn -0.0000 0.8934 0.4493
vn -0.7557 -0.0000 -0.6549
vn -0.2817 -0.0000 -0.9595
vn -0.0000 -1.0000 -0.0000
vn -0.0000 0.9280 0.3727
vn -0.0000 0.9453 0.3261
vn -0.0000 0.9931 0.1172
vn -0.0000 1.0000 -0.0000
s 0
f 1//1 2//1 4//1 3//1
f 3//2 4//2 6//2 5//2
f 5//3 6//3 8//3 7//3
f 7//4 8//4 10//4 9//4
f 9//5 10//5 12//5 11//5
f 11//6 12//6 14//6 13//6
f 13//7 14//7 16//7 15//7
f 15//8 16//8 18//8 17//8
f 17//9 18//9 20//9 19//9
f 2//10 22//10 4//10
f 19//11 20//11 22//11 21//11
f 21//12 22//12 2//12 1//12
f 1//13 3//13 5//13 7//13 9//13 11//13 13//13 15//13 17//13 19//13 21//13
f 6//14 4//14 22//14 20//14
f 8//15 6//15 20//15 18//15
f 10//16 8//16 18//16 16//16
f 12//17 10//17 16//17 14//17
