# Blender 3.6.4
# www.blender.org
o Cylinder.002
v -3.666199 -5.444328 -14.826535
v -3.666199 4.209849 -14.826536
v 3.323436 -5.444328 -12.774193
v 3.323436 3.177821 -12.774194
v 8.093911 -5.444327 -7.268771
v 8.093911 0.966784 -7.268772
v 9.130632 -5.444327 -0.058201
v 9.130632 -1.520677 -0.058201
v 6.104451 -5.444326 11.094492
v 6.104451 -2.836743 11.094492
v -0.023842 -5.444326 15.032906
v -0.023842 -2.836743 15.032906
v -7.308560 -5.444326 15.032906
v -7.308560 -2.836743 15.032906
v -13.436853 -5.444326 11.094490
v -13.436853 -2.836743 11.094490
v -16.463034 -5.444327 -0.058203
v -16.463034 -1.520677 -0.058203
v -15.426309 -5.444327 -7.268773
v -15.426309 0.966784 -7.268774
v -10.655834 -5.444328 -12.774194
v -10.655834 3.177821 -12.774195
vn 0.2817 -0.0000 -0.9595
vn 0.7557 -0.0000 -0.6549
vn 0.9898 -0.0000 -0.1423
vn 0.9651 -0.0000 0.2619
vn 0.5406 -0.0000 0.8413
vn -0.0000 -0.0000 1.0000
vn -0.5406 -0.0000 0.8413
vn -0.9651 -0.0000 0.2619
vn -0.9898 -0.0000 -0.1423
vn -0.0000 0.8934 0.4493
vn -0.7557 -0.0000 -0.6549
vn -0.2817 -0.0000 -0.9595
vn -0.0000 -1.0000 -0.0000
vn -0.0000 0.9280 0.3727
vn -0.0000 0.9453 0.3261
vn -0.0000 0.9931 0.1172
vn -0.0000 1.0000 -0.0000
vt 0.150221 0.212445
vt 0.150221 -0.000000
vt 0.362666 -0.000000
vt 0.362666 0.212445
vt 0.000000 0.300442
vt 0.212445 0.300442
vt 0.212445 0.512887
vt 0.000000 0.512887
vt 0.362666 0.212445
vt 0.362666 0.000000
vt 0.575111 0.000000
vt 0.575111 0.212445
vt 0.362666 0.424889
vt 0.575111 0.212445
vt 0.575111 0.424889
vt 0.000000 0.512887
vt 0.212445 0.512887
vt 0.212445 0.725332
vt 0.000000 0.725332
vt 0.424889 0.512887
vt 0.424889 0.725332
vt 0.787555 -0.000000
vt 0.787555 0.212445
vt 0.787555 0.212445
vt 0.787555 0.424889
vt 0.575111 0.637334
vt 0.575111 0.424890
vt 0.787555 0.424890
vt 0.787555 0.637334
vt 0.000000 0.000000
vt 0.150221 0.150221
vt -0.000000 0.300442
vt 0.212445 0.937776
vt 0.000000 0.937776
vt 0.424889 0.937776
vt 0.989320 0.699430
vt 0.950125 0.654197
vt 0.892697 0.637334
vt 0.835268 0.654197
vt 0.796073 0.699430
vt 0.787555 0.758674
vt 0.812419 0.813117
vt 0.862770 0.845476
vt 0.922623 0.845476
vt 0.972974 0.813117
vt 0.997838 0.758674
vt 0.637334 0.725332
vt 0.637334 0.937776
vt 0.787555 0.212445
vt 0.787555 0.000000
vt 1.000000 0.000000
vt 1.000000 0.212445
vt 0.787555 0.424890
vt 1.000000 0.424889
vt 1.000000 0.637334
s 0
f 1/1/1 2/2/1 4/3/1 3/4/1
f 3/5/2 4/6/2 6/7/2 5/8/2
f 5/9/3 6/10/3 8/11/3 7/12/3
f 7/13/4 8/4/4 10/14/4 9/15/4
f 9/16/5 10/17/5 12/18/5 11/19/5
f 11/17/6 12/20/6 14/21/6 13/18/6
f 13/12/7 14/11/7 16/22/7 15/23/7
f 15/15/8 16/14/8 18/24/8 17/25/8
f 17/26/9 18/27/9 20/28/9 19/29/9
f 2/30/10 22/31/10 4/32/10
f 19/19/11 20/18/11 22/33/11 21/34/11
f 21/18/12 22/21/12 2/35/12 1/33/12
f 1/36/13 3/37/13 5/38/13 7/39/13 9/40/13 11/41/13 13/42/13 15/43/13 17/44/13 19/45/13 21/46/13
f 6/21/14 4/47/14 22/48/14 20/35/14
f 8/49/15 6/50/15 20/51/15 18/52/15
f 10/53/16 8/49/16 18/52/16 16/54/16
f 12/29/17 10/53/17 16/54/17 14/55/17
