# Blender 3.6.4
# www.blender.org
mtllib wheel.mtl
o Cylinder.002
v 5.523486 -0.997574 1.529339
v 5.568176 -0.997574 1.578864
v 5.523486 -0.997574 1.734339
v 5.568176 -0.997574 1.684814
v 5.412697 -1.411044 1.529339
v 5.451400 -1.433389 1.578864
v 5.412697 -1.411044 1.734339
v 5.451400 -1.433389 1.684814
v 5.110016 -1.713725 1.529339
v 5.132361 -1.752428 1.578864
v 5.110016 -1.713725 1.734339
v 5.132361 -1.752428 1.684814
v 4.696546 -1.824514 1.529339
v 4.696546 -1.869204 1.578864
v 4.696546 -1.824514 1.734339
v 4.696546 -1.869204 1.684814
v 4.283075 -1.713725 1.529339
v 4.260730 -1.752428 1.578864
v 4.283075 -1.713725 1.734339
v 4.260730 -1.752428 1.684814
v 3.980394 -1.411044 1.529339
v 3.941691 -1.433389 1.578864
v 3.980394 -1.411044 1.734339
v 3.941691 -1.433389 1.684814
v 3.869606 -0.997574 1.529339
v 3.824915 -0.997574 1.578864
v 3.869606 -0.997574 1.734339
v 3.824915 -0.997574 1.684814
v 3.980394 -0.584104 1.529339
v 3.941691 -0.561758 1.578864
v 3.980394 -0.584104 1.734339
v 3.941691 -0.561758 1.684814
v 4.283075 -0.281422 1.529339
v 4.260730 -0.242720 1.578864
v 4.283075 -0.281422 1.734339
v 4.260730 -0.242720 1.684814
v 4.696546 -0.170633 1.529339
v 4.696546 -0.125943 1.578864
v 4.696546 -0.170633 1.734339
v 4.696546 -0.125943 1.684814
v 5.110016 -0.281422 1.529339
v 5.132361 -0.242720 1.578864
v 5.110016 -0.281422 1.734339
v 5.132361 -0.242720 1.684814
v 5.412697 -0.584104 1.529339
v 5.451400 -0.561758 1.578864
v 5.412697 -0.584104 1.734339
v 5.451400 -0.561758 1.684814
vn 0.9659 0.2588 -0.0000
vn 0.2588 -0.9659 -0.0000
vn -0.2588 -0.9659 -0.0000
vn -0.7071 -0.7071 -0.0000
vn -0.9659 -0.2588 -0.0000
vn -0.9659 0.2588 -0.0000
vn -0.7071 0.7071 -0.0000
vn -0.2588 0.9659 -0.0000
vn 0.2588 0.9659 -0.0000
vn 0.7071 0.7071 -0.0000
vn 0.7071 -0.7071 -0.0000
vn -0.0000 -0.0000 1.0000
vn 0.9659 -0.2588 -0.0000
vn 0.7281 -0.1951 -0.6571
vn 0.7281 -0.1951 0.6571
vn 0.5330 -0.5330 -0.6571
vn 0.5330 -0.5330 0.6571
vn 0.1951 -0.7281 -0.6571
vn 0.1951 -0.7281 0.6571
vn -0.1951 -0.7281 -0.6571
vn -0.1951 -0.7281 0.6571
vn -0.5330 -0.5330 -0.6571
vn -0.5330 -0.5330 0.6571
vn -0.7281 -0.1951 -0.6571
vn -0.7281 -0.1951 0.6571
vn -0.7281 0.1951 -0.6571
vn -0.7281 0.1951 0.6571
vn -0.5330 0.5330 -0.6571
vn -0.5330 0.5330 0.6571
vn -0.1951 0.7281 -0.6571
vn -0.1951 0.7281 0.6571
vn 0.1951 0.7281 -0.6571
vn 0.1951 0.7281 0.6571
vn 0.5330 0.5330 -0.6571
vn 0.5330 0.5330 0.6571
vn 0.7281 0.1951 -0.6571
vn 0.7281 0.1951 0.6571
vn -0.0000 -0.0000 -1.0000
vt 0.674085 0.727598
vt 0.674085 0.781150
vt 0.656815 0.781150
vt 0.656815 0.727598
vt 0.829512 0.727598
vt 0.829512 0.781150
vt 0.812242 0.781150
vt 0.812242 0.727598
vt 0.794972 0.781150
vt 0.794972 0.727598
vt 0.777703 0.781150
vt 0.777703 0.727598
vt 0.760433 0.781150
vt 0.760433 0.727598
vt 0.743163 0.781150
vt 0.743163 0.727598
vt 0.725894 0.781150
vt 0.725894 0.727598
vt 0.708624 0.781150
vt 0.708624 0.727598
vt 0.691354 0.781150
vt 0.691354 0.727598
vt 0.846781 0.727598
vt 0.846781 0.781150
vt 0.732217 0.691621
vt 0.708624 0.697943
vt 0.685031 0.691621
vt 0.667759 0.674349
vt 0.661438 0.650756
vt 0.667759 0.627163
vt 0.685031 0.609891
vt 0.708624 0.603570
vt 0.732217 0.609891
vt 0.749489 0.627163
vt 0.755810 0.650756
vt 0.749489 0.674349
vt 0.864051 0.727598
vt 0.864051 0.781150
vt 0.812242 0.700493
vt 0.837110 0.693829
vt 0.835835 0.691621
vt 0.812242 0.697943
vt 0.733492 0.693829
vt 0.708624 0.700493
vt 0.855315 0.675624
vt 0.853107 0.674349
vt 0.751697 0.675624
vt 0.861979 0.650756
vt 0.859428 0.650756
vt 0.758361 0.650756
vt 0.855315 0.625888
vt 0.853107 0.627163
vt 0.751697 0.625888
vt 0.837110 0.607683
vt 0.835835 0.609891
vt 0.733492 0.607683
vt 0.812242 0.601019
vt 0.812242 0.603570
vt 0.708624 0.601019
vt 0.787374 0.607683
vt 0.788649 0.609891
vt 0.683756 0.607683
vt 0.769169 0.625888
vt 0.771377 0.627163
vt 0.665551 0.625888
vt 0.762505 0.650756
vt 0.765055 0.650756
vt 0.658888 0.650756
vt 0.769169 0.675624
vt 0.771377 0.674349
vt 0.665551 0.675624
vt 0.787374 0.693829
vt 0.788649 0.691621
vt 0.683756 0.693829
s 0
usemtl Material.001
f 46/1/1 48/2/1 4/3/1 2/4/1
f 10/5/2 12/6/2 16/7/2 14/8/2
f 14/8/3 16/7/3 20/9/3 18/10/3
f 18/10/4 20/9/4 24/11/4 22/12/4
f 22/12/5 24/11/5 28/13/5 26/14/5
f 26/14/6 28/13/6 32/15/6 30/16/6
f 30/16/7 32/15/7 36/17/7 34/18/7
f 34/18/8 36/17/8 40/19/8 38/20/8
f 38/20/9 40/19/9 44/21/9 42/22/9
f 42/22/10 44/21/10 48/2/10 46/1/10
f 6/23/11 8/24/11 12/6/11 10/5/11
f 7/25/12 3/26/12 47/27/12 43/28/12 39/29/12 35/30/12 31/31/12 27/32/12 23/33/12 19/34/12 15/35/12 11/36/12
f 2/37/13 4/38/13 8/24/13 6/23/13
f 2/39/14 6/40/14 5/41/14 1/42/14
f 8/43/15 4/44/15 3/26/15 7/25/15
f 6/40/16 10/45/16 9/46/16 5/41/16
f 12/47/17 8/43/17 7/25/17 11/36/17
f 10/45/18 14/48/18 13/49/18 9/46/18
f 16/50/19 12/47/19 11/36/19 15/35/19
f 14/48/20 18/51/20 17/52/20 13/49/20
f 20/53/21 16/50/21 15/35/21 19/34/21
f 18/51/22 22/54/22 21/55/22 17/52/22
f 24/56/23 20/53/23 19/34/23 23/33/23
f 22/54/24 26/57/24 25/58/24 21/55/24
f 28/59/25 24/56/25 23/33/25 27/32/25
f 26/57/26 30/60/26 29/61/26 25/58/26
f 32/62/27 28/59/27 27/32/27 31/31/27
f 30/60/28 34/63/28 33/64/28 29/61/28
f 36/65/29 32/62/29 31/31/29 35/30/29
f 34/63/30 38/66/30 37/67/30 33/64/30
f 40/68/31 36/65/31 35/30/31 39/29/31
f 38/66/32 42/69/32 41/70/32 37/67/32
f 44/71/33 40/68/33 39/29/33 43/28/33
f 42/69/34 46/72/34 45/73/34 41/70/34
f 48/74/35 44/71/35 43/28/35 47/27/35
f 46/72/36 2/39/36 1/42/36 45/73/36
f 4/44/37 48/74/37 47/27/37 3/26/37
f 1/42/38 5/41/38 9/46/38 13/49/38 17/52/38 21/55/38 25/58/38 29/61/38 33/64/38 37/67/38 41/70/38 45/73/38
