# Blender 3.6.2
# www.blender.org
o Cylinder.004
v 6.085484 -0.997574 1.529339
v 6.130175 -0.997574 1.578864
v 6.085484 -0.997574 1.734339
v 6.130175 -0.997574 1.684814
v 5.974695 -1.411044 1.529339
v 6.013398 -1.433389 1.578864
v 5.974695 -1.411044 1.734339
v 6.013398 -1.433389 1.684814
v 5.672014 -1.713725 1.529339
v 5.694359 -1.752428 1.578864
v 5.672014 -1.713725 1.734339
v 5.694359 -1.752428 1.684814
v 5.258544 -1.824514 1.529339
v 5.258544 -1.869204 1.578864
v 5.258544 -1.824514 1.734339
v 5.258544 -1.869204 1.684814
v 4.845074 -1.713725 1.529339
v 4.822729 -1.752428 1.578864
v 4.845074 -1.713725 1.734339
v 4.822729 -1.752428 1.684814
v 4.542393 -1.411044 1.529339
v 4.503690 -1.433389 1.578864
v 4.542393 -1.411044 1.734339
v 4.503690 -1.433389 1.684814
v 4.431604 -0.997574 1.529339
v 4.386913 -0.997574 1.578864
v 4.431604 -0.997574 1.734339
v 4.386913 -0.997574 1.684814
v 4.542393 -0.584104 1.529339
v 4.503690 -0.561758 1.578864
v 4.542393 -0.584104 1.734339
v 4.503690 -0.561758 1.684814
v 4.845074 -0.281422 1.529339
v 4.822729 -0.242720 1.578864
v 4.845074 -0.281422 1.734339
v 4.822729 -0.242720 1.684814
v 5.258544 -0.170633 1.529339
v 5.258544 -0.125943 1.578864
v 5.258544 -0.170633 1.734339
v 5.258544 -0.125943 1.684814
v 5.672014 -0.281422 1.529339
v 5.694359 -0.242720 1.578864
v 5.672014 -0.281422 1.734339
v 5.694359 -0.242720 1.684814
v 5.974695 -0.584104 1.529339
v 6.013398 -0.561758 1.578864
v 5.974695 -0.584104 1.734339
v 6.013398 -0.561758 1.684814
vn 0.9659 0.2588 -0.0000
vn 0.2588 -0.9659 -0.0000
vn -0.2588 -0.9659 -0.0000
vn -0.7071 -0.7071 -0.0000
vn -0.9659 -0.2588 -0.0000
vn -0.9659 0.2588 -0.0000
vn -0.7071 0.7071 -0.0000
vn -0.2588 0.9659 -0.0000
vn 0.2588 0.9659 -0.0000
vn 0.7071 0.7071 -0.0000
vn 0.7071 -0.7071 -0.0000
vn -0.0000 -0.0000 1.0000
vn 0.9659 -0.2588 -0.0000
vn 0.7281 -0.1951 -0.6571
vn 0.7281 -0.1951 0.6571
vn 0.5330 -0.5330 -0.6571
vn 0.5330 -0.5330 0.6571
vn 0.1951 -0.7281 -0.6571
vn 0.1951 -0.7281 0.6571
vn -0.1951 -0.7281 -0.6571
vn -0.1951 -0.7281 0.6571
vn -0.5330 -0.5330 -0.6571
vn -0.5330 -0.5330 0.6571
vn -0.7281 -0.1951 -0.6571
vn -0.7281 -0.1951 0.6571
vn -0.7281 0.1951 -0.6571
vn -0.7281 0.1951 0.6571
vn -0.5330 0.5330 -0.6571
vn -0.5330 0.5330 0.6571
vn -0.1951 0.7281 -0.6571
vn -0.1951 0.7281 0.6571
vn 0.1951 0.7281 -0.6571
vn 0.1951 0.7281 0.6571
vn 0.5330 0.5330 -0.6571
vn 0.5330 0.5330 0.6571
vn 0.7281 0.1951 -0.6571
vn 0.7281 0.1951 0.6571
vn -0.0000 -0.0000 -1.0000
s 0
f 46//1 48//1 4//1 2//1
f 10//2 12//2 16//2 14//2
f 14//3 16//3 20//3 18//3
f 18//4 20//4 24//4 22//4
f 22//5 24//5 28//5 26//5
f 26//6 28//6 32//6 30//6
f 30//7 32//7 36//7 34//7
f 34//8 36//8 40//8 38//8
f 38//9 40//9 44//9 42//9
f 42//10 44//10 48//10 46//10
f 6//11 8//11 12//11 10//11
f 7//12 3//12 47//12 43//12 39//12 35//12 31//12 27//12 23//12 19//12 15//12 11//12
f 2//13 4//13 8//13 6//13
f 2//14 6//14 5//14 1//14
f 8//15 4//15 3//15 7//15
f 6//16 10//16 9//16 5//16
f 12//17 8//17 7//17 11//17
f 10//18 14//18 13//18 9//18
f 16//19 12//19 11//19 15//19
f 14//20 18//20 17//20 13//20
f 20//21 16//21 15//21 19//21
f 18//22 22//22 21//22 17//22
f 24//23 20//23 19//23 23//23
f 22//24 26//24 25//24 21//24
f 28//25 24//25 23//25 27//25
f 26//26 30//26 29//26 25//26
f 32//27 28//27 27//27 31//27
f 30//28 34//28 33//28 29//28
f 36//29 32//29 31//29 35//29
f 34//30 38//30 37//30 33//30
f 40//31 36//31 35//31 39//31
f 38//32 42//32 41//32 37//32
f 44//33 40//33 39//33 43//33
f 42//34 46//34 45//34 41//34
f 48//35 44//35 43//35 47//35
f 46//36 2//36 1//36 45//36
f 4//37 48//37 47//37 3//37
f 1//38 5//38 9//38 13//38 17//38 21//38 25//38 29//38 33//38 37//38 41//38 45//38
